<svg xmlns="http://www.w3.org/2000/svg" width="512" height="512" viewBox="0 0 512.001 512.001"
    style="enable-background:new 0 0 512 512" xml:space="preserve"><path fill="#cbc4cc" d="M256 502.565c-65.849 0-127.758-25.688-174.321-72.332C35.116 383.59 9.473 321.574 9.473 255.61S35.116 127.63 81.68 80.986C128.242 34.342 190.151 8.654 256 8.654s127.758 25.688 174.321 72.332c46.564 46.643 72.207 108.66 72.207 174.624s-25.643 127.98-72.207 174.624C383.759 476.878 321.85 502.565 256 502.565z" />
    <ellipse cx="256" cy="255.61" fill="#f3f0f3" rx="201.395" ry="201.746" />
    <ellipse cx="256" cy="255.61" fill="#fd4755" rx="170.305" ry="170.601" />
    <path fill="#fb2b3a"
        d="M256 85.009c-6.766 0-13.438.41-20 1.182 84.516 9.95 150.305 82.127 150.305 169.418S320.516 415.078 236 425.028a170.87 170.87 0 0 0 20 1.182c93.907 0 170.305-76.531 170.305-170.601S349.907 85.009 256 85.009z" />
    <path
        d="M169.41 165.226a7.5 7.5 0 0 1-4.985-13.106c25.294-22.477 57.815-34.855 91.575-34.855 4.143 0 7.5 3.358 7.5 7.5s-3.357 7.5-7.5 7.5c-30.083 0-59.066 11.034-81.61 31.068a7.476 7.476 0 0 1-4.98 1.893zM256 393.955c-4.143 0-7.5-3.358-7.5-7.5s3.357-7.5 7.5-7.5c29.36 0 57.812-10.569 80.115-29.76a7.5 7.5 0 1 1 9.783 11.37c-25.023 21.532-56.949 33.39-89.898 33.39z"
        fill="#fd8087" />
    <path
        d="M180.5 249.181c-1.737-.642-3.642-1.25-5.658-1.895-6.128-1.958-15.387-4.917-17.653-9.145-1.104-2.061-1.205-4.215-.299-6.4 1.186-2.862 3.891-5.234 7.059-6.19 11.954-3.606 22.813 5.09 23.047 5.278a7.5 7.5 0 0 0 9.632-11.499c-.688-.58-17.105-14.145-37.013-8.14-7.476 2.256-13.675 7.792-16.582 14.808-2.635 6.357-2.303 13.186.936 19.229 5.136 9.582 17.373 13.492 26.308 16.347 1.853.592 3.602 1.151 5.025 1.677 8.166 3.018 12.322 7.694 11.403 12.831-.921 5.149-6.958 10.476-15.468 10.476-8.208 0-16.128-3.338-21.187-8.93a7.501 7.501 0 0 0-10.593-.531 7.498 7.498 0 0 0-.53 10.593c7.854 8.684 19.934 13.868 32.31 13.868 14.907 0 27.905-9.817 30.233-22.835 1.768-9.883-2.812-22.833-20.97-29.542zm173.18 0c-1.737-.642-3.642-1.25-5.658-1.895-6.128-1.958-15.388-4.917-17.654-9.145-1.104-2.061-1.205-4.214-.299-6.4 1.186-2.862 3.891-5.234 7.06-6.19 11.932-3.603 22.778 5.062 23.044 5.277a7.498 7.498 0 0 0 10.539-.93 7.5 7.5 0 0 0-.905-10.568c-.688-.58-17.105-14.146-37.012-8.14-7.476 2.256-13.675 7.792-16.583 14.808-2.635 6.357-2.303 13.186.936 19.229 5.136 9.582 17.374 13.492 26.31 16.348 1.852.592 3.602 1.151 5.024 1.677 8.166 3.018 12.322 7.694 11.403 12.83-.921 5.15-6.959 10.477-15.469 10.477-8.207 0-16.127-3.338-21.186-8.93a7.501 7.501 0 0 0-10.593-.531 7.498 7.498 0 0 0-.53 10.593c7.854 8.684 19.933 13.868 32.309 13.868 14.908 0 27.906-9.817 30.234-22.835 1.767-9.884-2.813-22.834-20.97-29.543zM256 209.662c-25.297 0-45.877 20.612-45.877 45.948s20.58 45.948 45.877 45.948 45.877-20.612 45.877-45.948-20.58-45.948-45.877-45.948zm0 76.896c-17.025 0-30.877-13.883-30.877-30.948s13.852-30.948 30.877-30.948 30.877 13.883 30.877 30.948-13.851 30.948-30.877 30.948z"
        fill="#fff" />
    <path
        d="m49.288 452.842-26.106 26.153a7.5 7.5 0 0 0 5.309 12.798 7.473 7.473 0 0 0 5.308-2.202l26.106-26.153a7.5 7.5 0 0 0-10.617-10.596zm-20.463-37.111a7.5 7.5 0 0 0-10.446-1.833L3.22 424.532a7.499 7.499 0 0 0 4.313 13.64c1.487 0 2.99-.441 4.3-1.36l15.159-10.634a7.499 7.499 0 0 0 1.833-10.447zm68.097 68.235a7.502 7.502 0 0 0-10.444 1.851l-10.056 14.387a7.5 7.5 0 0 0 12.295 8.593l10.056-14.387a7.5 7.5 0 0 0-1.851-10.444zm365.79-31.124a7.498 7.498 0 0 0-10.606-.01 7.5 7.5 0 0 0-.01 10.606l26.106 26.153a7.475 7.475 0 0 0 5.308 2.202 7.5 7.5 0 0 0 5.309-12.798zm46.069-28.31-15.159-10.634a7.499 7.499 0 0 0-10.446 1.833 7.499 7.499 0 0 0 1.833 10.447l15.159 10.634a7.465 7.465 0 0 0 4.3 1.36 7.5 7.5 0 0 0 4.313-13.64zm-83.258 61.284a7.5 7.5 0 0 0-12.295 8.593l10.056 14.387a7.494 7.494 0 0 0 6.154 3.204 7.5 7.5 0 0 0 6.141-11.797zm31.882-424.457a7.473 7.473 0 0 0 5.308-2.202l26.106-26.153a7.5 7.5 0 0 0-.01-10.606 7.498 7.498 0 0 0-10.606.01l-26.106 26.153a7.5 7.5 0 0 0 .01 10.606 7.473 7.473 0 0 0 5.298 2.192zm25.77 34.91a7.488 7.488 0 0 0 6.146 3.193c1.487 0 2.99-.441 4.3-1.36l15.159-10.634a7.5 7.5 0 0 0-8.613-12.28l-15.159 10.634a7.499 7.499 0 0 0-1.833 10.447zM433.728 1.353a7.502 7.502 0 0 0-10.444 1.851L413.228 17.59a7.5 7.5 0 0 0 12.295 8.593l10.056-14.387a7.501 7.501 0 0 0-1.851-10.443zM33.798 22.408a7.498 7.498 0 0 0-10.606-.01 7.5 7.5 0 0 0-.01 10.606l26.106 26.153a7.475 7.475 0 0 0 5.308 2.202 7.5 7.5 0 0 0 5.309-12.798zM3.22 87.468l15.159 10.634a7.465 7.465 0 0 0 4.3 1.36 7.499 7.499 0 0 0 4.313-13.64L11.833 75.188a7.5 7.5 0 0 0-10.446 1.833A7.499 7.499 0 0 0 3.22 87.468zM88.717 3.203a7.5 7.5 0 0 0-12.295 8.594l10.056 14.387a7.494 7.494 0 0 0 6.154 3.204 7.5 7.5 0 0 0 6.141-11.797z"
        fill="#f3f0f3" /></svg>